<svg viewBox="0 0 48 48" xmlns="http://www.w3.org/2000/svg"><g fill="none" fill-rule="evenodd"><path d="M2 9v29.999A3 3 0 0 0 5.007 42h37.986A2.998 2.998 0 0 0 46 38.999V9H32V6l-3-3H19l-3 3v3L2 9.24V9zm17-2.001c0-.552.456-.999.995-.999h8.01c.55 0 .995.443.995.999V9H19V6.999z" fill="#EEE"/><path d="M18.227 42L24 32h14.7c-2.73-5.343-8.288-9-14.7-9-5.825 0-10.944 3.018-13.88 7.576V42h8.107z" fill="#EA4335"/><path d="M16.776 42l-6.659-11.421A16.423 16.423 0 0 0 7.5 39.5c0 .85.064 1.685.188 2.5h9.088z" fill="#34A853"/><path d="M29.775 42L24 32h14.7c1.151 2.25 1.8 4.8 1.8 7.5 0 .85-.064 1.685-.188 2.5H29.775z" fill="#FDC626"/><path d="M31.073 42a7.5 7.5 0 1 0-14.146 0h14.146z" fill="#F5F5F5"/><path d="M29.456 42a6 6 0 1 0-10.912 0h10.912z" fill="#4285F4"/></g></svg>