<?xml version="1.0" encoding="utf-8"?>
<!-- Generator: Adobe Illustrator 23.0.5, SVG Export Plug-In . SVG Version: 6.00 Build 0)  -->
<svg version="1.1" id="Layer_1" xmlns="http://www.w3.org/2000/svg" xmlns:xlink="http://www.w3.org/1999/xlink" x="0px" y="0px"
	 viewBox="0 0 512 512" style="enable-background:new 0 0 512 512;" xml:space="preserve">
<style type="text/css">
	.st0{fill-rule:evenodd;clip-rule:evenodd;fill:#B5B5B5;}
	.st1{fill-rule:evenodd;clip-rule:evenodd;fill:#FEFEFE;}
	.st2{fill:#212121;}
	.st3{fill-rule:evenodd;clip-rule:evenodd;fill:#FFCA28;}
	.st4{fill-rule:evenodd;clip-rule:evenodd;fill:#64BB46;}
	.st5{fill-rule:evenodd;clip-rule:evenodd;fill:#43A144;}
	.st6{fill-rule:evenodd;clip-rule:evenodd;fill:#2C4F8E;}
	.st7{fill-rule:evenodd;clip-rule:evenodd;fill:#FFFFFE;}
	.st8{fill:none;}
</style>
<g id="Layer_x0020_1">
	<path class="st0" d="M275.5,246.1L275.5,246.1z M254.5,130.3c-2.5-3.1-5.6-6.2-9.2-9.1c-4.1-3.3-8.9-6.4-14.5-9.4
		c-10.8-5.7-22.9-9.7-35.5-11.7c-12.3-1.9-24.9-1.9-37.1,0.3l0.4,9.7c0.6,0.1,2.4,1.2,4.4,2.6c-6.4,1.8-12.2,4.4-12.1,12.2l0.1,5.4
		l5.3-0.5c9.1-0.9,18.5-0.6,27.8,0.8c2.8,0.4,5.6,1,8.4,1.6l-1.3,0.4c-6.3,1.7-12,3.9-16.7,6.4c-14.3,7.5-23.2,18.7-27.7,33.3
		c-4.4,14.1-4.4,31.3-0.9,51.2l0,0c4.6,26,19.8,97.4,32,155.5c6.1,28.8,11.5,54.4,14.5,69c1,4.9,1.6,9.5,1.7,14
		c0.1,2.8,0,5.5-0.2,8.2c-0.1,1.8-0.4,3.5-0.6,5.3l9.7,3.6l104.2-0.5l8.8-6.5c-0.6-1.3-1.3-2.6-2-4c-7.1-14.2-14.6-28.6-21.1-41.1
		c-4.7-9.1-8.9-17.1-12-23.3c-8.3-16.5-16.5-36.8-21-56.1c-2.7-11.6-4-22.8-3.2-32.5c-4.7-1.9-8.2-3.6-9.8-4.8l0,0
		c-4.4-3.1-9.6-8.6-12.9-15.3c-2.6-5.4-4.1-11.5-3.1-17.8c1-6.1,8.4-14.4,17.8-20.8l0,0c8.2-5.6,18.1-10,26.5-10.6
		c2.4-0.1,5-0.3,7.4-0.4c10.3-0.6,15.5-0.9,26-3.5c3.4-0.8,8-2,13.4-3.4c0.7-12.5-1.8-26.9-6.5-41c-6.8-20.5-18-40.4-30-52.4
		c-3.9-3.9-8.7-7-14.1-9.5C266.4,133.4,260.6,131.6,254.5,130.3L254.5,130.3z"/>
	<path class="st1" d="M281,246.1L281,246.1z M260,130.3c-2.5-3.1-5.6-6.2-9.2-9.1c-4.1-3.3-8.9-6.4-14.5-9.4
		c-10.8-5.7-22.9-9.7-35.5-11.7c-12.3-1.9-24.9-1.9-37.1,0.3l0.4,9.7c0.6,0.1,2.4,1.2,4.4,2.6c-6.4,1.8-12.2,4.4-12.1,12.2l0.1,5.4
		l5.3-0.5c9.1-0.9,18.5-0.6,27.8,0.8c2.8,0.4,5.6,1,8.4,1.6l-1.3,0.4c-6.3,1.7-12,3.9-16.7,6.4c-14.3,7.5-23.2,18.7-27.7,33.3
		c-4.4,14.1-4.4,31.3-0.9,51.2l0,0c4.6,26,19.8,97.4,32,155.5c6.1,28.8,11.5,54.4,14.5,69c1,4.9,1.6,9.5,1.7,14
		c0.1,2.8,0,5.5-0.2,8.2c-0.1,1.8-0.4,3.5-0.6,5.3l9.7,3.6l104.2-0.5l8.8-6.5c-0.6-1.3-1.3-2.6-2-4c-7.1-14.2-14.6-28.6-21.1-41.1
		c-4.7-9.1-8.9-17.1-12-23.3c-8.3-16.5-16.5-36.8-21-56.1c-2.7-11.6-4-22.8-3.2-32.5c-4.7-1.9-8.2-3.6-9.8-4.8l0,0
		c-4.4-3.1-9.6-8.6-12.9-15.3c-2.6-5.4-4.1-11.5-3.1-17.8c1-6.1,8.4-14.4,17.8-20.8l0,0c8.2-5.6,18.1-10,26.5-10.6
		c2.4-0.1,5-0.3,7.4-0.4c10.3-0.6,15.5-0.9,26-3.5c3.4-0.8,8-2,13.4-3.4c0.7-12.5-1.8-26.9-6.5-41c-6.8-20.5-18-40.4-30-52.4
		c-3.9-3.9-8.7-7-14.1-9.5C271.9,133.4,266.1,131.6,260,130.3L260,130.3z"/>
	<path class="st1" d="M487.4,256c0-61.6-24.3-120.1-67.8-163.6S317.6,24.6,256,24.6S135.9,48.9,92.4,92.4S24.6,194.4,24.6,256
		s24.3,120.1,67.8,163.6s102.1,67.8,163.6,67.8s120.1-24.3,163.6-67.8S487.4,317.6,487.4,256L487.4,256z M412.6,412.6
		C371,454.3,315,477.5,256,477.5s-115-23.2-156.6-64.9C57.7,371,34.5,315,34.5,256S57.7,141,99.4,99.4C141,57.7,197.1,34.5,256,34.5
		s115,23.2,156.6,64.9c41.7,41.7,64.9,97.7,64.9,156.6S454.3,371,412.6,412.6L412.6,412.6z"/>
	<path class="st2" d="M383.6,303.2L383.6,303.2L383.6,303.2z"/>
	<path class="st2" d="M402.4,241.5C402.4,241.4,402.4,241.5,402.4,241.5L402.4,241.5z"/>
	<path class="st3" d="M280.1,244.4L280.1,244.4z M400.2,224.6c-8.9-3.5-23-3.9-28.7-1.1c-3.5,1.7-11,4.1-19.5,6.7
		c-7.9,2.4-16.6,4.7-24,6.7c-5.5,1.4-10.3,2.7-13.6,3.5c-10.8,2.7-16,3-26.5,3.6c-2.4,0.1-5.1,0.3-7.5,0.4
		c-8.6,0.6-18.8,5.1-27.1,10.9l0,0c-9.6,6.6-17.1,15.1-18.1,21.4c-1,6.5,0.5,12.9,3.2,18.4c3.4,6.9,8.7,12.5,13.1,15.8l0,0
		c1.6,1.2,5.2,3,10,5c8,3.3,19.5,7.3,31.1,10.5c13.4,3.7,27.4,6.5,37.5,6.3c10.5-0.2,23.9-3.2,35.3-7.6c6.8-2.6,13-5.8,17.5-9.1
		c5.5-4.1,8.8-8.8,8.8-13.8c0-1.2-0.2-2.4-0.6-3.5l0,0c-3.6-10.2-15.5-7.3-32.5-3.1c-14.4,3.5-33.2,8.1-52,6.3
		c-10-1-16.8-3.3-20.9-6.2c-1.8-1.3-3-2.7-3.8-4c-0.6-1.2-0.8-2.4-0.7-3.6c0.1-1.4,0.7-2.8,1.6-4.2l0,0c2.4-3.7,7.1-3,13.5-2
		c8,1.3,17.9,2.8,30.5-1.1c12.2-3.8,27-9.2,40.4-14.6c13-5.3,24.6-10.5,31-14.2c7.8-4.6,11.5-9.1,12.5-13.2c0.9-3.8-0.3-6.9-2.8-9.6
		C405.7,227.3,403.1,225.8,400.2,224.6L400.2,224.6z"/>
	<g id="_337885008">
		<path id="_337884768" class="st4" d="M204.5,454.1l-5.4-73.6c3.4-7,48.7,14.6,59.2,18l3.3,38.3C251.9,442,210.4,471.3,204.5,454.1
			L204.5,454.1z"/>
		<path id="_337884576" class="st5" d="M250.4,404.8c0,0,21.8-16.4,40.2-7.1c0,0,5.2,29.3,0,37c0,0-14.4,8.2-39.5,4.1L250.4,404.8
			L250.4,404.8z"/>
		<path id="_337884384" class="st4" d="M252.8,401.9c0,0,21.8-16.4,40.3-7.1c0,0,5.2,29.3,0,37c0,0-14.4,8.2-39.5,4.1L252.8,401.9
			L252.8,401.9z"/>
		<path id="_337885080" class="st4" d="M288.6,400.8c15.8-9.5,65.8-52.7,60.5-11.2l-1.2,50.2c0.1,2-0.9,2.8-2.7,2.6l-60.9-14.9
			L288.6,400.8L288.6,400.8z"/>
	</g>
	<g id="_337884048">
		<circle id="_337884456" class="st6" cx="199.2" cy="223.4" r="14.8"/>
		<circle id="_337884216" class="st7" cx="205.9" cy="218.4" r="3.8"/>
	</g>
	<g id="_337883784">
		<circle id="_337883664" class="st6" cx="276.3" cy="209.2" r="12.6"/>
		<circle id="_337883880" class="st7" cx="282" cy="204.9" r="3.2"/>
	</g>
	<path class="st6" d="M183.6,184.7c10.5-6.6,21.4-1.7,21.4-1.7s-7.3-9.6-22.2-3.5s-9.3,18.6-9.3,18.6S173.1,191.3,183.6,184.7
		L183.6,184.7z"/>
	<path class="st6" d="M274.8,174.8c-15.9-2.6-18,10.4-18,10.4s3.4-5.5,15.8-5.6c6-0.1,13.8,4.4,13.8,4.4S283.4,176.2,274.8,174.8z"
		/>
</g>
<rect x="-768" y="-768" class="st8" width="2048" height="2048"/>
</svg>
