<?xml version="1.0" encoding="utf-8"?>
<!-- Generator: Adobe Illustrator 23.0.5, SVG Export Plug-In . SVG Version: 6.00 Build 0)  -->
<svg version="1.1" id="Layer_1" xmlns="http://www.w3.org/2000/svg" xmlns:xlink="http://www.w3.org/1999/xlink" x="0px" y="0px"
	 viewBox="0 0 256 256" style="enable-background:new 0 0 256 256;" xml:space="preserve">
<g>
	<path d="M130.21,210.28c-5.72,1.12-11.64,1.72-17.71,1.72C63.7,212,24,174.32,24,128c0-46.32,39.7-84,88.5-84
		c7.16,0,14.12,0.84,20.8,2.37c-1.53-3.96-3.18-7.83-4.33-11.88c-0.03-0.06-0.07-0.12-0.11-0.19C123.53,33.46,118.07,33,112.5,33
		C57.64,33,13,75.62,13,128c0,52.38,44.64,95,99.5,95c4.08,0,8.1-0.26,12.06-0.73C126.59,218.34,128.48,214.35,130.21,210.28z"/>
</g>
<g>
	<path d="M108.5,11c-11.48,0-20.41,12.81-26.66,32.37c0.52-0.06,1.04-0.11,1.57-0.17c3.71-1.36,7.54-2.27,11.38-3.17
		C99.28,28.4,104.26,22,108.5,22c10.8,0,26.5,41.29,26.5,106c0,64.71-15.7,106-26.5,106c-4.16,0-9.04-6.14-13.47-17.36
		c-4.43-0.64-8.72-1.86-12.96-3.31C88.31,232.49,97.16,245,108.5,245c24.62,0,37.5-58.86,37.5-117S133.12,11,108.5,11z"/>
</g>
<g>
	<path d="M139.96,167.82v-0.31c-0.7,0.26-1.41,0.52-2.12,0.74c-20.88,6.61-45.73-1.43-63.29-20.48c-2.06-2.23-5.54-2.38-7.77-0.32
		c-2.23,2.06-2.38,5.54-0.32,7.77c15.59,16.92,36.34,26.3,56.38,26.3c5.13,0,10.21-0.64,15.15-1.91
		C138.88,175.74,139.41,171.77,139.96,167.82z"/>
</g>
<circle cx="146" cy="93" r="9"/>
<circle cx="142" cy="80" r="9"/>
<circle cx="139.5" cy="60.5" r="7.5"/>
<circle cx="135.5" cy="50.5" r="6.5"/>
<circle cx="146" cy="123" r="9"/>
<circle cx="144" cy="154" r="9"/>
<circle cx="142" cy="169" r="9"/>
<circle cx="146" cy="106" r="9"/>
<circle cx="163.5" cy="126.5" r="7.5"/>
<circle cx="152.5" cy="142.5" r="7.5"/>
<circle cx="165.5" cy="104.5" r="7.5"/>
<circle cx="158.5" cy="180.5" r="7.5"/>
<circle cx="191" cy="165" r="6"/>
<circle cx="179" cy="183" r="6"/>
<circle cx="172" cy="168" r="6"/>
<circle cx="156" cy="199" r="6"/>
<circle cx="145" cy="212" r="6"/>
<circle cx="141" cy="197" r="6"/>
<circle cx="140" cy="185" r="6"/>
<circle cx="199" cy="92" r="6"/>
<circle cx="183" cy="100" r="6"/>
<circle cx="173" cy="89" r="6"/>
<circle cx="187" cy="80" r="6"/>
<circle cx="176" cy="69" r="6"/>
<circle cx="158" cy="85" r="6"/>
<circle cx="157" cy="67" r="6"/>
<circle cx="154" cy="51" r="6"/>
<circle cx="196" cy="113" r="6"/>
<circle cx="178" cy="120" r="6"/>
<circle cx="177" cy="138" r="6"/>
<circle cx="175" cy="152" r="6"/>
<circle cx="161" cy="159" r="6"/>
<circle cx="197" cy="148" r="6"/>
<circle cx="191" cy="132" r="6"/>
<circle cx="172" cy="198" r="4"/>
<circle cx="181" cy="210" r="4"/>
<circle cx="160" cy="214" r="4"/>
<circle cx="139" cy="229" r="4"/>
<circle cx="172" cy="226" r="4"/>
<circle cx="201.5" cy="182.5" r="3.5"/>
<circle cx="194.5" cy="197.5" r="3.5"/>
<circle cx="200.5" cy="213.5" r="3.5"/>
<circle cx="211.5" cy="169.5" r="3.5"/>
<circle cx="217.5" cy="193.5" r="3.5"/>
<circle cx="229.5" cy="166.5" r="3.5"/>
<circle cx="212" cy="150" r="4"/>
<circle cx="230.5" cy="141.5" r="3.5"/>
<circle cx="212" cy="129" r="4"/>
<circle cx="214.5" cy="112.5" r="3.5"/>
<circle cx="232.5" cy="112.5" r="3.5"/>
<circle cx="216.5" cy="93.5" r="3.5"/>
<circle cx="225.5" cy="77.5" r="3.5"/>
<circle cx="206" cy="70" r="4"/>
<circle cx="215.5" cy="54.5" r="3.5"/>
<circle cx="192" cy="62" r="4"/>
<circle cx="194.5" cy="44.5" r="3.5"/>
<circle cx="175" cy="50" r="4"/>
<circle cx="176" cy="30" r="4"/>
<circle cx="150" cy="29" r="4"/>
</svg>
