<svg viewBox="0 0 48 48" xmlns="http://www.w3.org/2000/svg"><g fill="none" fill-rule="evenodd"><path d="M6.318 2.123L32 24 6.318 45.877A1.981 1.981 0 0 1 5 44.009V3.991c0-.894.573-1.595 1.318-1.868z" fill="#0CF"/><path d="M28 34.918V13.082l16.955 9.173a1.979 1.979 0 0 1 0 3.49L28 34.918z" fill="#FFCA00"/><path d="M35.085 31.085L28 24 6.18 45.82a2.003 2.003 0 0 0 1.791-.066l27.114-14.67z" fill="#F1304C"/><path d="M35.085 16.915L28 24 6.18 2.18a2.003 2.003 0 0 1 1.791.066l27.114 14.67z" fill="#00F076"/></g></svg>