<?xml version="1.0" encoding="utf-8"?>
<!-- Generator: Adobe Illustrator 23.0.5, SVG Export Plug-In . SVG Version: 6.00 Build 0)  -->
<svg version="1.1" id="Layer_1" xmlns="http://www.w3.org/2000/svg" xmlns:xlink="http://www.w3.org/1999/xlink" x="0px" y="0px"
	 viewBox="0 0 429.71 429.71" style="enable-background:new 0 0 429.71 429.71;" xml:space="preserve">
<style type="text/css">
	.st0{fill:#181A1C;}
	.st1{fill:#D80000;}
</style>
<path class="st0" d="M429.71,196.62c0-29.8-24.16-53.96-53.96-53.96c-14.93,0-28.41,6.09-38.18,15.88
	c-30.18-19.46-68.73-31.87-111.07-33.8c0.03-17.98,8.08-34.74,22.1-45.99c14.05-11.27,32.2-15.49,49.77-11.59l2.41,0.54
	c-0.02,0.61-0.09,1.2-0.09,1.81c0,24.88,20.17,45.05,45.05,45.05s45.05-20.17,45.05-45.05c0-24.88-20.17-45.05-45.05-45.05
	c-16,0-30.01,8.36-38,20.93l-4.32-0.96c-24.51-5.45-49.81,0.44-69.39,16.16c-19.56,15.69-30.79,39.07-30.82,64.15
	c-42.33,1.93-80.88,14.33-111.05,33.78c-9.77-9.8-23.27-15.87-38.2-15.87C24.16,142.66,0,166.82,0,196.62
	c0,20.76,11.75,38.76,28.95,47.78c-1.31,6.68-1.99,13.51-1.99,20.46c0,77.54,84.13,140.39,187.9,140.39s187.9-62.86,187.9-140.4
	c0-6.95-0.69-13.77-1.99-20.45C417.96,235.38,429.71,217.38,429.71,196.62z M345.75,47.74c12,0,21.76,9.76,21.76,21.76
	c0,12-9.76,21.76-21.76,21.76s-21.76-9.76-21.76-21.76C323.98,57.51,333.75,47.74,345.75,47.74z M23.28,196.62
	c0-16.92,13.76-30.68,30.68-30.68c7.24,0,13.89,2.54,19.14,6.76c-16.41,14.08-29.12,30.63-37.01,48.8
	C28.35,215.94,23.28,206.87,23.28,196.62z M333.78,345.48c-31.49,23.53-73.73,36.49-118.93,36.49s-87.44-12.96-118.93-36.49
	c-29.46-22.01-45.69-50.64-45.69-80.62c0-29.98,16.23-58.61,45.69-80.62c31.49-23.53,73.73-36.49,118.93-36.49
	s87.44,12.96,118.93,36.49c29.46,22.01,45.69,50.65,45.69,80.62C379.47,294.83,363.25,323.46,333.78,345.48z M393.61,221.49
	c-7.89-18.17-20.6-34.72-37.01-48.79c5.25-4.22,11.9-6.75,19.15-6.75c16.92,0,30.68,13.76,30.68,30.68
	C406.42,206.87,401.35,215.93,393.61,221.49z"/>
<g>
	<circle class="st1" cx="146.22" cy="232.07" r="24.57"/>
	<circle class="st1" cx="283.48" cy="232.07" r="24.57"/>
</g>
<path class="st0" d="M273.08,291.77c-17.32,15.78-39.77,24.47-63.22,24.47c-26.33,0-50.73-10.61-68.7-29.88
	c-4.38-4.7-11.75-4.96-16.45-0.58c-4.7,4.38-4.96,11.75-0.57,16.45c22.09,23.7,53.34,37.29,85.73,37.29
	c29.27,0,57.29-10.85,78.9-30.54c4.75-4.33,5.1-11.69,0.77-16.45C285.2,287.79,277.84,287.44,273.08,291.77z"/>
</svg>
