<?xml version="1.0" encoding="utf-8"?>
<!-- Generator: Adobe Illustrator 23.0.5, SVG Export Plug-In . SVG Version: 6.00 Build 0)  -->
<svg version="1.1" id="Layer_1" xmlns="http://www.w3.org/2000/svg" xmlns:xlink="http://www.w3.org/1999/xlink" x="0px" y="0px"
	 viewBox="0 0 478.7 126" style="enable-background:new 0 0 478.7 126;" xml:space="preserve">
<style type="text/css">
	.st0{fill:#FFFFFF;}
</style>
<path class="st0" d="M34.4,6.8c29.4-14.9,65.4-4.3,82.2,24.1c8.6,14.7,11,32.1,6.8,48.6c-2.7-3.1-4.9-7.4-9.2-8.3
	c-4-1-7.5,1.7-10.8,3.6c3-11,1.5-22.7-4-32.7C87.9,21.8,62.2,14.7,42,26.1c-9,5.1-15.8,13.3-19.2,23.1c-2.7,7.8-3,16.3-1,24.3
	c-3.7-1.7-7.9-3.9-12-2.4c-4,1.3-5.9,5.4-7.4,9c-3.7-12.8-3.3-26.4,1.3-38.9C9.3,26.3,20.2,14,34.4,6.8z"/>
<path class="st0" d="M334.8,26.2c2.2,0,4.3,0,6.5,0c0.1,4,0.2,8,0.2,11.9c2.3,0,4.7,0.1,7,0.1c0,2.2,0.1,4.4,0.2,6.7l-7.2,0.1
	c0,5.3,0,10.6,0.1,15.8c2.3-1.3,4.7-2.6,7.1-3.9c0,2.6,0,5.3,0.1,7.9l-7,3.4c-0.5,6.9,0.1,13.8-0.4,20.7c-0.2,4.6-3.5,8.6-8,9.7
	c-3.2,0.6-6.4,0.3-9.6,0.2c0-2.2,0-4.4,0-6.5c3.3-0.3,7.9,1.1,10.3-1.8c1.5-5.8,0.5-12,0.5-17.9c-3.7,1.6-7.4,3.3-10.9,5.2
	c0.1-2.5,0.1-5,0.1-7.5c3.6-1.8,7.2-3.7,10.8-5.5c0.3-6.6,0.2-13.2,0.1-19.8c-3.7,0-7.3-0.1-11-0.2c0-2.2,0-4.4,0-6.6
	c3.6,0,7.3,0,10.9-0.1C334.8,34.2,334.9,30.2,334.8,26.2z"/>
<path class="st0" d="M369.7,26.2c2.2,0,4.3,0,6.5,0c0.1,10.8-0.2,21.6,0.2,32.4c3.8-0.1,7.7,0.4,11.4-0.5c1.4-1.7,0.7-4.2,1-6.3
	c-3.5,0-6.9-0.1-10.4-0.1c0-2.2,0.1-4.4,0.1-6.7c3.4,0,6.8,0,10.2-0.1c-0.1-2.7-0.2-5.5-0.3-8.3c-3.3-0.2-6.5-0.3-9.8-0.3l-0.1-6.7
	c5.7-0.3,13.8-0.9,16.2,5.7c1.4,6.3,0.5,13,0.7,19.5c0.3,4.2-2.1,8.5-6.2,9.8c-4.1,0.9-8.5,0.4-12.7,0.4c-0.1,0.7-0.3,2-0.3,2.7
	c6.7,0.2,13.5,0,20.2,0.2c-3.6,7.2-9.3,12.8-15.3,17.8c4.7,2.2,9.5,4.2,14.3,6.2v7.3c-7.5-2.4-14.3-6.7-21.8-8.8
	c-7.6,3.3-15.1,7.1-23.4,8.7c0.1-2.3,0.2-4.6,0.3-6.8c5.1-1.2,10-3,14.6-5.4c-4.8-2.4-9.7-4.5-14.7-6.3c-0.3-4.2-0.4-8.5-0.2-12.7
	c6.4,0,12.8,0,19.2-0.1c-0.1-0.7-0.2-2-0.3-2.7c-5.1-0.2-10.9,1.3-15.4-1.8c-4.8-3.7-3.4-10.3-3.6-15.5c0.3-5.1-1.1-11.3,2.8-15.4
	c3.8-3.8,9.6-2.5,14.5-2.7c-0.1,2.3-0.1,4.5-0.2,6.8c-3.3,0-6.6,0-10,0.3c-0.1,2.8-0.2,5.5-0.3,8.3c3.4,0.1,6.9,0.1,10.3,0l0.1,6.7
	H357c0,1.9,0.1,3.9,0.4,5.8c3.7,1.7,8.1,0.7,12.1,0.9c0.4-10.8,0-21.6,0.2-32.4 M356,74.9c4.4,2.7,9.4,4.4,14.1,6.5
	c1.3,0.5,2.7,1.2,4.2,1.1c3.9-1.6,6.9-4.6,9.7-7.7C374.6,74.4,365.3,74.4,356,74.9z"/>
<path class="st0" d="M439.5,26.2c2,0,4,0,6.1,0c0.1,2.2,0.2,4.3,0.4,6.5c9.9,0.1,19.8-0.1,29.7,0.1c-0.1,2.3-0.1,4.6-0.2,6.8
	c-9.8-0.1-19.5-0.2-29.3,0c0,1.7,0,3.5,0,5.2c7.8,0.1,15.6-0.1,23.5,0c3.3,0,7,1.1,8.4,4.4c0.9,3.1,0.5,6.4,0.6,9.6l-6.7-0.2
	c-0.1-2.5-0.2-5-0.4-7.5c-15.1,0-30.3,0.4-45.4-0.2c2.3,3.6-1.5,7.1-2.6,10.5c11.8,0.1,23.6-0.2,35.4,0.1c0,2.1,0,4.3,0,6.4
	c-10.4,0.3-20.7,0.1-31,0.1c-1,1.9-2.1,3.7-3.2,5.6c12.3,0.2,24.6,0,36.9,0.1c2-0.2,4.4,0.3,5.9-1.3c0.4-2.5,0.5-5,0.5-7.4
	c2.2,0,4.4,0,6.6,0c0.1,4.4,0.9,9.7-2.8,12.9c-4.5,4-11.1,1.9-16.5,2.8c7.4,4.4,15.5,7.5,23.3,11.3c0,2.5,0.1,5.1,0.1,7.6
	c-7.9-3.8-15.8-7.5-23.8-11.1c-0.1-2.7-0.1-5.4-0.1-8.1c-2.6,0.1-5.2,0.2-7.8,0.3c0,5.2,0.9,11.3-3.1,15.4
	c-3.2,3.6-8.3,2.7-12.5,2.8c0.1-2.2,0.1-4.5,0.1-6.7c2.8-0.5,6.9,1,8.4-2.1c0.9-3.2,0.5-6.6,0.5-9.9c-2.6,0.1-5.1,0-7.7,0
	c-0.2,2.8-0.3,5.6-0.5,8.3c-7.9,5-16.8,8-25.7,10.6c0-2.4,0-4.8,0-7.1c8.4-3.1,17.4-5.8,24.4-11.7c-5.8-0.1-11.6,0.1-17.4-0.3
	c2.1-3.9,4.4-7.8,6.4-11.8l-7.2-0.3c2.6-5.5,5.6-10.8,8.1-16.4c-2.6,0-5.2,0.1-7.8,0.2c0,2.4,0,4.7-0.1,7.1h-6.5
	c0.1-3.4-0.6-7.1,1-10.3c1.9-3.2,5.9-3.7,9.2-3.7c7.5,0,14.9,0.1,22.4,0c0-1.7,0-3.5,0-5.2c-9.8-0.2-19.6-0.2-29.4,0
	c0-2.3-0.1-4.6-0.2-6.9c10-0.2,19.9,0,29.9-0.1L439.5,26.2z"/>
<path class="st0" d="M156.7,30.1c10,0.2,19.9,0,29.9,0.1c4.9,0.1,10.3,1.1,13.6,5.1s3.4,9.6,3.4,14.6c-0.1,10.3,0.1,20.7-0.1,31.1
	c-0.1,4.4-1.4,9.1-5.1,11.8c-4.1,3.4-9.8,3.6-14.9,3.6c-9-0.1-18,0.1-26.9-0.2v-7.2c10-0.1,20,0.1,30-0.1c3.2-0.1,7.6-0.6,8.8-4.2
	c1.1-5.9,0.4-11.9,0.4-17.8c-12.7-0.1-25.4,0.1-38.1-0.1c0-2.3,0-4.6,0-6.9c12.7-0.2,25.4,0,38.1-0.1c0-5.9,0.7-11.9-0.4-17.8
	c-0.7-3.6-4.8-4.2-7.8-4.2c-10.3-0.2-20.7,0-31-0.1L156.7,30.1z"/>
<path class="st0" d="M278.9,30.5c5.5-0.6,11.1-0.2,16.6-0.3c5.2-0.1,10.9,1,14.5,5.2c3.5,4,3.8,9.5,3.8,14.6c0,9.3,0,18.7,0,28
	c0,5.3-1,11.4-5.5,14.9c-5,4.1-11.8,3.5-17.8,3.6c-6-0.2-12.5,0.7-17.9-2.6c-4.7-2.8-6.8-8.5-6.8-13.8c-0.1-9.3,0.1-18.7-0.1-28
	c0-4.6-0.3-9.5,2-13.8C270.1,34,274.2,31.1,278.9,30.5 M278.9,38.2c-3.6,0.6-5.4,4.3-5.4,7.7c-0.4,9.7,0,19.3-0.2,29
	c0.2,3.8-0.4,8.1,2,11.3c2.9,3.1,7.5,2.4,11.3,2.6c5-0.2,10.2,0.5,15.1-0.8c3.8-1.2,4.8-5.5,4.7-9.1c-0.1-11,0.1-22-0.1-33
	c0.1-3.9-2.6-7.9-6.7-8C292.6,37.5,285.6,37.2,278.9,38.2L278.9,38.2z"/>
<path class="st0" d="M216.9,34.3c3.9-3.6,9.6-3.7,14.6-3.8c8.8,0.1,17.5-0.1,26.3,0.1c-0.1,2.3-0.1,4.7-0.1,7
	c-9.4-0.1-18.8-0.2-28.2,0c-4.1-0.1-8.9,1.7-10.3,5.9c-1.6,5.3-0.9,10.9-0.8,16.3c8.7,0.1,17.5-0.1,26.2,0.1
	c4.6,0.1,9.9,1.4,12.2,5.7c2.5,4.7,2,10.2,2,15.3c0,4.5-1.6,9.2-5.4,11.8c-5.7,4.3-13.2,3.4-19.9,3.5c-6.4,0-13.8,0.2-18.7-4.7
	c-3.6-3.2-3.6-8.3-3.6-12.7c0.1-9.7-0.1-19.3,0.2-29C211.6,44.4,212.7,38.4,216.9,34.3 M218.4,66.9c0,5.8-0.8,11.8,0.7,17.5
	c0.9,3.2,4.3,4.8,7.4,4.8c6,0.3,12.1,0.3,18.1-0.1c3.5-0.1,6.4-2.7,6.9-6.1c0.7-4.2,0.6-8.5-0.4-12.6c-1-3.1-4.8-3.3-7.6-3.5
	C235.2,66.6,226.8,66.7,218.4,66.9L218.4,66.9z"/>
<path class="st0" d="M9.9,71.2c4.1-1.5,8.3,0.6,12,2.4c0.3,1.1,0.6,2.1,0.9,3.1c-3.6-1.9-7.8-4.2-12-2.6c-4.1,1.3-6.1,5.4-7.6,9.2
	c-0.3-1-0.5-2-0.7-3.1C4,76.5,5.9,72.4,9.9,71.2z"/>
<path class="st0" d="M103.3,74.7c3.3-1.9,6.8-4.6,10.8-3.6c4.3,0.9,6.6,5.2,9.2,8.3c-0.6,1.5-1.1,3.1-1.5,4.6
	c-0.8-4-2.8-8.3-6.9-9.6c-4.3-2-8.7,0.3-12.3,2.5L103.3,74.7z"/>
<path class="st0" d="M10.8,74c4.2-1.6,8.4,0.7,12,2.6c3.6,10.1,10.8,18.6,20.3,23.7c11.5,6.1,25.2,6.5,37.1,1.2
	c10.5-4.9,18.5-13.7,22.4-24.6c3.6-2.2,8.1-4.5,12.3-2.5c4.2,1.3,6.1,5.6,6.9,9.6c-3.6,10.9-10.8,20.4-19.4,27.8
	c-14.2,11.7-32.9,16.5-51,13.2c-22-3.9-41-20.7-48.2-41.8C4.7,79.5,6.7,75.3,10.8,74z"/>
<path class="st0" d="M127.8,101.2c6.2-2.1,13.2,3.2,13,9.7c0.1,5.6-4.4,10.2-10.1,10.3c-0.1,0-0.2,0-0.3,0
	c-6.1,0.2-11.2-6.2-9.8-12.1C121.4,105.3,124.1,102.3,127.8,101.2z"/>
</svg>
