<?xml version="1.0" encoding="utf-8"?>
<!-- Generator: Adobe Illustrator 23.0.5, SVG Export Plug-In . SVG Version: 6.00 Build 0)  -->
<svg version="1.1" id="Layer_1" xmlns="http://www.w3.org/2000/svg" xmlns:xlink="http://www.w3.org/1999/xlink" x="0px" y="0px"
	 viewBox="0 0 320 62.8" style="enable-background:new 0 0 320 62.8;" xml:space="preserve">
<style type="text/css">
	.st0{fill:#FFFFFF;}
</style>
<path class="st0" d="M231.7,28.6c-0.8,0-1.5-0.1-2.2-0.4l0.1,2.1c1.4,0.6,2.9,0.8,4.4,0.8c5.5,0,9.1-3.1,9.1-7.7
	c0-4.4-3.7-8.2-9.9-8.2c-8.5,0-13.8,7-13.8,15.4c0,8.1,5,13.1,12.6,13.1c5.9,0,9.6-2.8,11-4.4l-0.6-2.2c-1.9,1.3-4.1,2.1-6.4,2.1
	c-4.4,0-8.7-2.1-8.7-10.4c0-7,2.2-11,5.4-11c2.1,0,3.7,1.6,3.7,4.8C236.5,26.7,234.6,28.5,231.7,28.6"/>
<path class="st0" d="M68.7,27.2L61,29.5c-4.4,1.3-6.7,3.7-6.7,7.3c0,3.8,3,7,7.7,7c4.2,0,6.7-1.9,8-3.5c0.4,1.7,1.8,3.6,5.1,3.6
	c2.7,0,4.5-0.8,6-2.5l-0.7-1.6c-0.3,0.3-0.7,0.5-1.1,0.5c-1,0-1.7-0.5-1.7-1.9V22.6c0-5-3.6-7.4-9.6-7.4c-7.2,0-12.8,3.4-12.8,7.1
	c0,1.9,1.5,3,3.5,3c0.4,0,0.8-0.1,1.3-0.1c1.2-0.3,2.1-1.4,2.1-2.7v-1.2c0-2.1,0.9-3.3,3.6-3.3c2.4,0,4.3,1,4.3,4.5v3.3
	C69.9,26.8,69.6,27,68.7,27.2 M69.9,36.1c0,2.3-1.5,3.5-3.7,3.5c-2.5,0-4.2-1.4-4.2-4c0-2.3,1.3-4.1,4-5.2l3.8-1.5L69.9,36.1z"/>
<path class="st0" d="M209,38.2l-8.1-0.1c-1.9-0.1-3.1-0.8-3.1-2.6c0.1-0.7,0.3-1.4,0.8-1.9c1.7,0.6,3.5,0.8,5.3,0.8
	c7.9,0,12.4-4.4,12.4-9.6c0-3.1-1.7-5.9-4.3-7.4l-0.5-0.3c-0.3-0.2-0.6-0.3-0.9-0.5l-0.4-0.2c-0.8-0.3-1.6-0.6-2.4-0.7l-0.3-0.1
	c0.7-1.1,3.5-6.4,6.5-7.5c1.1-0.4,1.8,0.1,3,1.2c0.8,0.7,1.4,1.8,3.3,1.8s4.2-1.9,4.2-4s-0.5-4.8-5.2-4.8c-6.5,0-10.7,6.8-13.1,11.4
	c0,0-0.6,1.2-0.7,1.5c-0.4,0-0.9-0.1-1.4-0.1c-7.8,0-12.3,4.4-12.3,9.5c0,3.4,2,6.5,5.1,8c-1.6,1.5-4,3.4-4,5.6
	c-0.1,1.7,0.8,3.4,2.2,4.4c0.8,0.6,1.7,1,2.7,1.2c1.3,0.3,2.6,0.5,3.9,0.6l4.5,0.2c3.6,0.1,5.9,1,5.9,4.1c0,3.5-4,5.6-9.5,5.6
	c-4.5,0-7.8-1.7-7.8-4.9c0-1.7,0.9-3.2,2.4-3.9c-1.2-0.4-2.4-0.9-3.3-1.1c-2.8,1.3-4,3.2-4,5.4c0,3.8,4.1,7,11.6,7
	c10.9,0,17.1-5.6,17.1-11.4C218.4,40.4,214.5,38.3,209,38.2 M203.9,17.7c3.5,0,4.6,2.8,4.6,7.2s-1.1,7.3-4.6,7.3s-4.6-2.9-4.6-7.3
	S200.4,17.7,203.9,17.7"/>
<path class="st0" d="M35.4,37.3c0,3.1,2,6.5,7.7,6.5c3.8,0.1,7.4-2.1,9-5.5l-1.5-1.2c-1,1.4-2.5,2.2-4.2,2.3c-1.9,0-3.3-1-3.3-3.1
	V20h7.5v-2.8H43V9.1h-2.7c-0.3,3.4-3.8,8.5-8.7,8.7V20h3.7V37.3z"/>
<path class="st0" d="M9.6,30.8c0.1-0.6,0.2-2-0.4-2.5C8.8,28,8.4,27.8,8,27.7c-4.8-0.6-8.1,7.8-4.5,11.5c2.3,2.3,5.4,4.2,11.1,4.6
	c10,0.6,15.8-5.2,16.2-11.9c0.4-6.2-4.2-9.2-10.5-12.6l-4.2-2.1c-3.6-2-5.5-3.6-5.4-6.9c0.3-4.4,4-6.6,8-6.2
	c3.6,0.4,3.8,2.5,3.7,5.2L22.3,12c-0.1,1,0.7,1.9,1.7,2c0,0,0,0,0,0c2.4,0.1,5.4-1,5.6-4.1c0.2-3.6-1.9-7.5-10.6-8
	C9.6,1.2,3.8,6.6,3.5,12.4c-0.3,4.9,2.2,8.1,7.9,11.2l4.5,2.3c4.4,2.4,7,4.4,6.7,8.6s-2.3,7.3-7.5,6.8s-5.7-5.2-5.8-6.9
	c0-0.3,0-0.6,0-0.9C9.3,32.6,9.4,31.7,9.6,30.8"/>
<path class="st0" d="M86.9,22.1v15.5c0,2.4-0.4,3.4-2.7,3.4h-1v2.3H99V41h-1.2c-2.4,0-3.3-0.9-3.3-3.4V23c1.3-1.1,2.6-2.1,4.1-3
	c0.2,2.2,2.1,3.8,4.3,3.7c2.3,0,4.1-1.9,4.2-4.1c0-2.3-1.6-4.2-4.7-4.2c-2.2,0-5.5,1.6-7.9,4.9V20c0-2.2-1.6-4.5-5.3-4.5
	c-2.2,0-4.4,0.5-6.5,1.3V19c0.5-0.1,1-0.2,1.5-0.2C86.1,18.8,87,20.1,86.9,22.1"/>
<path class="st0" d="M123.6,39.4c-1.9,0-3.3-1-3.3-3.1V20h7.6v-2.8h-7.6V9.1h-2.7c-0.3,3.4-3.8,8.5-8.7,8.7V20h3.7v17.3
	c0,3.1,2,6.5,7.7,6.5c3.8,0.1,7.4-2.1,9-5.5l-1.4-1.2C126.9,38.5,125.3,39.3,123.6,39.4"/>
<path class="st0" d="M248.3,38.1c-1.6,0-2.8,1.3-2.8,2.9c0,1.6,1.3,2.8,2.9,2.8c1.5,0,2.8-1.3,2.8-2.8
	C251.1,39.4,249.9,38.2,248.3,38.1C248.3,38.2,248.3,38.2,248.3,38.1"/>
<path class="st0" d="M264.4,41.2c-2.5,0-5.5-1.3-5.5-6.6c0-4.9,1.6-6.7,3.8-6.7c1.1,0,1.5,0.4,1.5,1.6v1.6c0.5,0.4,1.2,0.7,1.9,0.6
	c1.2,0.1,2.2-0.8,2.3-1.9c0-0.1,0-0.1,0-0.2c0-1.7-2-3.3-5.6-3.3c-5.2,0-8.8,3.8-8.8,9.4c0,4.8,3.1,7.9,7.9,7.9
	c2.5,0.1,4.9-0.9,6.7-2.5l-0.3-1.3C267.2,40.7,265.8,41.2,264.4,41.2"/>
<path class="st0" d="M279.1,26.4c-4.6-0.1-8.4,3.5-8.6,8.1c0,0.2,0,0.4,0,0.6c0,4.7,3.8,8.5,8.5,8.5c4.7,0,8.5-3.8,8.5-8.5
	c0,0,0,0,0,0c0.2-4.6-3.4-8.5-8-8.7C279.5,26.4,279.3,26.4,279.1,26.4 M279.1,42.2c-2.2,0-3.6-1.8-3.6-7.1s1.3-7.1,3.6-7.1
	s3.5,1.8,3.5,7.1S281.3,42.3,279.1,42.2"/>
<path class="st0" d="M317.5,41.9c-1.2,0-1.6-0.6-1.6-2.1v-9.5c0-2.4-1.5-3.9-4.4-3.9c-2.3,0.1-4.5,1-6.2,2.6
	c-0.4-1.4-1.8-2.6-4.2-2.6c-2.2,0.1-4.3,1.1-5.8,2.6l0.1-2.6h-1.2c-1,0.8-3.2,1.4-5.9,1.4v1.4h1.1c0.9,0,1.2,0.3,1.2,1.1v9.4
	c0,1.5-0.3,2.1-1.7,2.1h-0.6v1.4h9.3v-1.4h-0.5c-1.5,0-1.8-0.6-1.8-2.1v-8.3c0-1.4,1.3-2.3,3-2.3s2.6,0.8,2.6,2.7v7.9
	c0,1.5-0.3,2.1-1.7,2.1h-0.4v1.4h9v-1.4h-0.6c-1.2,0-1.6-0.6-1.6-2.1v-8.3c0-1.4,1.3-2.3,3-2.3s2.5,0.8,2.5,2.7v7.9
	c0,1.5-0.3,2.1-1.7,2.1H309v1.4h9v-1.4H317.5z"/>
<path class="st0" d="M149.7,15.2c-3,0-5.9,1.1-8.1,3.1l0.2-3.1h-2c-1.6,1.2-5.1,2.2-9.5,2.2v2.3h1.7c1.5,0,2,0.5,2,1.9v30.1
	c0,2.4-0.4,3.3-2.8,3.3h-1v2.3h15.9V55h-1.5c-2.3,0-2.9-1-2.9-3.4V22.5c0-2.4,1.7-3.7,4.4-3.7c3.6,0,6.9,2.9,6.9,11.1
	c0,7.6-3.1,11.1-6.8,11.4c-0.6,0-1.1,0.1-1.6,0.1v2c0.7,0.1,1.4,0.1,2.1,0.1c8.4,0,14.3-5.8,14.3-15.2
	C161.1,20.3,156.2,15.2,149.7,15.2"/>
<path class="st0" d="M190.3,41.3l-0.7-1.6c-0.3,0.3-0.7,0.5-1.1,0.5c-1,0-1.7-0.5-1.7-1.9V22.6c0-5-3.6-7.4-9.6-7.4
	c-7.1,0-12.8,3.4-12.8,7.1c0,1.9,1.5,3,3.5,3c0.4,0,0.8,0,1.3-0.1c1.3-0.3,2.2-1.4,2.2-2.7v-1.2c0-2.1,0.9-3.3,3.6-3.3
	c2.4,0,4.3,1,4.3,4.5v3.3c0,0.9-0.3,1.2-1.2,1.4l-7.7,2.3c-4.4,1.3-6.7,3.7-6.7,7.3c0,3.8,3,7,7.7,7c4.2,0,6.7-1.9,8-3.5
	c0.4,1.7,1.7,3.6,5,3.6C186.6,44,188.9,43.1,190.3,41.3 M179.2,36.1c0,2.3-1.4,3.5-3.7,3.5c-2.4,0-4.2-1.4-4.2-4
	c0-2.3,1.3-4.1,4-5.2l3.8-1.5L179.2,36.1z"/>
<path class="st0" d="M122.2,55.5c-8.2-1-22-2.5-35.8-3.3c-12.5-0.7-24.2-0.9-29.6-0.9c-30.7,0-31.7,0.8-49.8,2.7
	c-6.2,0.7-6.1,7.8,0.7,7.1c10.2-1.2,24.6-2.6,36.8-3.4C54.7,56.8,70,56,86.8,56c14.8,0,27.8,0.3,35.2,0.8c0.4,0.1,0.7-0.1,0.8-0.5
	s-0.1-0.7-0.5-0.8C122.3,55.5,122.3,55.5,122.2,55.5"/>
</svg>
