<?xml version="1.0" encoding="utf-8"?>
<!-- Generator: Adobe Illustrator 23.0.5, SVG Export Plug-In . SVG Version: 6.00 Build 0)  -->
<svg version="1.1" id="Layer_1" xmlns="http://www.w3.org/2000/svg" xmlns:xlink="http://www.w3.org/1999/xlink" x="0px" y="0px"
	 viewBox="0 0 512 512" style="enable-background:new 0 0 512 512;" xml:space="preserve">
<style type="text/css">
	.st0{fill:#FFFFFF;}
</style>
<path class="st0" d="M363.5,0h-72.7c-73.7,0-148.1,54.4-148.1,176c0,63,26.7,112,75.6,139.9L128.8,478c-4.2,7.7-4.4,16.4-0.3,23.2
	c4,6.7,11.2,10.7,19.4,10.7h45.3c10.3,0,18.3-5,22.2-13.7l84-164.2h6.1v157.5c0,11.1,9.4,20.5,20.4,20.5h39.6
	c12.4,0,21.1-8.7,21.1-21.1V22.4C386.5,9.2,377,0,363.5,0z M305.4,261.1h-10.8c-41.9,0-66.9-34.2-66.9-91.5
	c0-71.3,31.6-96.6,61.2-96.6h16.6V261.1z"/>
</svg>
